<?xml version="1.0" encoding="UTF-8" standalone="no"?>
<!-- Created with Inkscape (http://www.inkscape.org/) -->

<svg
   xmlns:ns1="http://www.iki.fi/pav/software/textext/"
   xmlns:dc="http://purl.org/dc/elements/1.1/"
   xmlns:cc="http://creativecommons.org/ns#"
   xmlns:rdf="http://www.w3.org/1999/02/22-rdf-syntax-ns#"
   xmlns:svg="http://www.w3.org/2000/svg"
   xmlns="http://www.w3.org/2000/svg"
   xmlns:sodipodi="http://sodipodi.sourceforge.net/DTD/sodipodi-0.dtd"
   xmlns:inkscape="http://www.inkscape.org/namespaces/inkscape"
   width="510.26785mm"
   height="119.44047mm"
   viewBox="0 0 510.26785 119.44047"
   version="1.1"
   id="svg4713"
   inkscape:version="0.92.1 r15371"
   sodipodi:docname="plot0.svg">
  <sodipodi:namedview
     id="base"
     pagecolor="#ffffff"
     bordercolor="#666666"
     borderopacity="1.0"
     inkscape:pageopacity="0.0"
     inkscape:pageshadow="2"
     inkscape:zoom="0.7"
     inkscape:cx="404.64699"
     inkscape:cy="-23.527651"
     inkscape:document-units="mm"
     inkscape:current-layer="layer1"
     showgrid="false"
     inkscape:window-width="1920"
     inkscape:window-height="986"
     inkscape:window-x="-11"
     inkscape:window-y="-11"
     inkscape:window-maximized="1"
     showguides="false"
     fit-margin-top="0"
     fit-margin-left="0"
     fit-margin-right="0"
     fit-margin-bottom="0">
    <inkscape:grid
       type="xygrid"
       id="grid5279"
       originx="275.64023"
       originy="-111.1477" />
  </sodipodi:namedview>
  <defs
     id="defs4707">
    <marker
       inkscape:stockid="Arrow1Lend"
       orient="auto"
       refY="0"
       refX="0"
       id="Arrow1Lend"
       style="overflow:visible"
       inkscape:isstock="true">
      <path
         id="path5621"
         d="M 0,0 5,-5 -12.5,0 5,5 Z"
         style="fill:#000000;fill-opacity:1;fill-rule:evenodd;stroke:#000000;stroke-width:1.00000003pt;stroke-opacity:1"
         transform="matrix(-0.8,0,0,-0.8,-10,0)"
         inkscape:connector-curvature="0" />
    </marker>
    <marker
       inkscape:stockid="Arrow1Lend"
       orient="auto"
       refY="0"
       refX="0"
       id="Arrow1Lend-7"
       style="overflow:visible"
       inkscape:isstock="true">
      <path
         inkscape:connector-curvature="0"
         id="path5621-2"
         d="M 0,0 5,-5 -12.5,0 5,5 Z"
         style="fill:#000000;fill-opacity:1;fill-rule:evenodd;stroke:#000000;stroke-width:1.00000003pt;stroke-opacity:1"
         transform="matrix(-0.8,0,0,-0.8,-10,0)" />
    </marker>
    <marker
       inkscape:stockid="Arrow1Lend"
       orient="auto"
       refY="0"
       refX="0"
       id="Arrow1Lend-7-7"
       style="overflow:visible"
       inkscape:isstock="true">
      <path
         inkscape:connector-curvature="0"
         id="path5621-2-7"
         d="M 0,0 5,-5 -12.5,0 5,5 Z"
         style="fill:#000000;fill-opacity:1;fill-rule:evenodd;stroke:#000000;stroke-width:1.00000003pt;stroke-opacity:1"
         transform="matrix(-0.8,0,0,-0.8,-10,0)" />
    </marker>
  </defs>
  <metadata
     id="metadata4710">
    <rdf:RDF>
      <cc:Work
         rdf:about="">
        <dc:format>image/svg+xml</dc:format>
        <dc:type
           rdf:resource="http://purl.org/dc/dcmitype/StillImage" />
        <dc:title></dc:title>
      </cc:Work>
    </rdf:RDF>
  </metadata>
  <g
     inkscape:label="Calque 1"
     inkscape:groupmode="layer"
     id="layer1"
     transform="translate(275.64023,-66.411842)">
    <rect
       style="fill:none;fill-opacity:0.82352941;stroke:#000000;stroke-width:0.86161619;stroke-linecap:round;stroke-miterlimit:4;stroke-dasharray:none;stroke-dashoffset:0;stroke-opacity:1"
       id="rect815"
       width="60.875378"
       height="44.037395"
       x="-151.23325"
       y="106.01301"
       ry="10.568991" />
    <rect
       style="fill:none;fill-opacity:0.82352941;stroke:#000000;stroke-width:0.86161619;stroke-linecap:round;stroke-miterlimit:4;stroke-dasharray:none;stroke-dashoffset:0;stroke-opacity:1"
       id="rect815-4"
       width="60.875378"
       height="44.037395"
       x="-45.67205"
       y="105.5163"
       ry="10.568991" />
    <rect
       style="fill:none;fill-opacity:0.82352941;stroke:#000000;stroke-width:0.86161619;stroke-linecap:round;stroke-miterlimit:4;stroke-dasharray:none;stroke-dashoffset:0;stroke-opacity:1"
       id="rect815-7"
       width="60.875378"
       height="44.037395"
       x="58.737495"
       y="73.045937"
       ry="10.568991" />
    <rect
       style="fill:none;fill-opacity:0.82352941;stroke:#000000;stroke-width:0.86161619;stroke-linecap:round;stroke-miterlimit:4;stroke-dasharray:none;stroke-dashoffset:0;stroke-opacity:1"
       id="rect815-7-3"
       width="60.875378"
       height="44.037395"
       x="58.737495"
       y="137.60435"
       ry="10.568991" />
    <flowRoot
       xml:space="preserve"
       id="flowRoot5311"
       style="font-style:normal;font-variant:normal;font-weight:200;font-stretch:normal;font-size:40px;line-height:1.25;font-family:'DejaVu Sans';-inkscape-font-specification:'DejaVu Sans, Ultra-Light';font-variant-ligatures:normal;font-variant-caps:normal;font-variant-numeric:normal;font-feature-settings:normal;text-align:start;letter-spacing:0px;word-spacing:0px;writing-mode:lr-tb;text-anchor:start;fill:#000000;fill-opacity:1;stroke:none"><flowRegion
         id="flowRegion5313"><rect
           id="rect5315"
           width="140"
           height="120"
           x="-520"
           y="422.51968" /></flowRegion><flowPara
         id="flowPara5317" /></flowRoot>    <g
       transform="matrix(2.0761319,0,0,2.0761319,-439.84533,-141.36752)"
       ns1:version="0.11.0"
       ns1:texconverter="pdflatex"
       ns1:pdfconverter="pdf2svg"
       ns1:text="\\Large $S$"
       ns1:preamble="C:\\Users\\fhamelin\\AppData\\Roaming\\inkscape\\extensions\\textext\\default_packages.tex"
       ns1:scale="3.31137369429"
       ns1:alignment="middle center"
       ns1:jacobian_sqrt="1.168179"
       id="g5360">
      <g
         id="surface1">
        <g
           style="fill:#000000;fill-opacity:1"
           id="g5357">
          <path
             inkscape:connector-curvature="0"
             style="stroke:none;stroke-width:0"
             d="m 9.109375,-9.96875 c 0,-0.125 -0.09375,-0.125 -0.125,-0.125 -0.0625,0 -0.078125,0.01563 -0.25,0.21875 C 8.65625,-9.765625 8.0625,-9.015625 8.046875,-9.015625 7.578125,-9.9375 6.625,-10.09375 6.03125,-10.09375 c -1.828125,0 -3.484375,1.65625 -3.484375,3.28125 0,1.078125 0.65625,1.703125 1.359375,1.953125 0.15625,0.046875 1,0.28125 1.421875,0.390625 0.734375,0.1875 0.921875,0.25 1.234375,0.5625 0.046875,0.078125 0.34375,0.40625 0.34375,1.078125 0,1.34375 -1.234375,2.71875 -2.671875,2.71875 -1.171875,0 -2.484375,-0.5 -2.484375,-2.109375 0,-0.28125 0.0625,-0.625 0.09375,-0.765625 0,-0.046875 0.015625,-0.109375 0.015625,-0.140625 0,-0.0625 -0.015625,-0.125 -0.140625,-0.125 -0.125,0 -0.140625,0.015625 -0.203125,0.265625 l -0.734375,2.9375 c 0,0.015625 -0.046875,0.203125 -0.046875,0.21875 0,0.125 0.109375,0.125 0.140625,0.125 0.0625,0 0.078125,-0.015625 0.25,-0.21875 L 1.78125,-0.78125 C 2.125,-0.265625 2.875,0.296875 4.203125,0.296875 6.046875,0.296875 7.75,-1.484375 7.75,-3.28125 7.75,-3.890625 7.609375,-4.421875 7.0625,-4.953125 6.75,-5.25 6.5,-5.328125 5.171875,-5.671875 4.21875,-5.921875 4.09375,-5.96875 3.828125,-6.203125 3.578125,-6.4375 3.40625,-6.78125 3.40625,-7.265625 c 0,-1.21875 1.21875,-2.4375 2.578125,-2.4375 1.40625,0 2.0625,0.859375 2.0625,2.21875 0,0.375 -0.078125,0.75 -0.078125,0.8125 0,0.125 0.125,0.125 0.171875,0.125 0.125,0 0.140625,-0.03125 0.1875,-0.265625 z m 0,0"
             transform="translate(148.712,134.765)"
             id="path5355" />
        </g>
      </g>
    </g>
    <g
       id="g5438"
       ns1:jacobian_sqrt="2.076132"
       ns1:alignment="middle center"
       ns1:scale="5.88509856755"
       ns1:preamble="C:\\Users\\fhamelin\\AppData\\Roaming\\inkscape\\extensions\\textext\\default_packages.tex"
       ns1:text="\\Large $I$"
       ns1:pdfconverter="pdf2svg"
       ns1:texconverter="pdflatex"
       ns1:version="0.11.0"
       transform="matrix(2.076132,0,0,2.076132,-330.82282,-141.39789)">
      <g
         id="g5436">
        <g
           id="g5434"
           style="fill:#000000;fill-opacity:1">
          <path
             id="path5432"
             transform="translate(148.712,134.765)"
             d="m 5.28125,-8.734375 c 0.125,-0.5 0.15625,-0.640625 1.203125,-0.640625 0.3125,0 0.421875,0 0.421875,-0.28125 0,-0.140625 -0.15625,-0.140625 -0.1875,-0.140625 -0.265625,0 -0.578125,0.03125 -0.84375,0.03125 H 4.109375 c -0.28125,0 -0.609375,-0.03125 -0.890625,-0.03125 -0.125,0 -0.28125,0 -0.28125,0.265625 0,0.15625 0.125,0.15625 0.40625,0.15625 0.890625,0 0.890625,0.109375 0.890625,0.265625 0,0.09375 -0.03125,0.1875 -0.0625,0.3125 l -1.9375,7.734375 c -0.125,0.5 -0.15625,0.640625 -1.203125,0.640625 -0.3125,0 -0.4375,0 -0.4375,0.28125 C 0.59375,0 0.734375,0 0.796875,0 1.0625,0 1.375,-0.03125 1.640625,-0.03125 H 3.40625 C 3.6875,-0.03125 4,0 4.28125,0 c 0.125,0 0.296875,0 0.296875,-0.265625 0,-0.15625 -0.09375,-0.15625 -0.40625,-0.15625 -0.890625,0 -0.890625,-0.109375 -0.890625,-0.28125 0,-0.03125 0,-0.09375 0.0625,-0.328125 z m 0,0"
             style="stroke:none;stroke-width:0"
             inkscape:connector-curvature="0" />
        </g>
      </g>
    </g>
    <g
       transform="matrix(2.076132,0,0,2.076132,-231.75519,-173.75213)"
       ns1:version="0.11.0"
       ns1:texconverter="pdflatex"
       ns1:pdfconverter="pdf2svg"
       ns1:text="\\Large $R$"
       ns1:preamble="C:\\Users\\fhamelin\\AppData\\Roaming\\inkscape\\extensions\\textext\\default_packages.tex"
       ns1:scale="5.88509856755"
       ns1:alignment="middle center"
       ns1:jacobian_sqrt="2.076132"
       id="g5512">
      <g
         id="g5510">
        <g
           style="fill:#000000;fill-opacity:1"
           id="g5508">
          <path
             inkscape:connector-curvature="0"
             style="stroke:none;stroke-width:0"
             d="m 5.28125,-8.828125 c 0.125,-0.53125 0.1875,-0.546875 0.75,-0.546875 H 7.0625 c 1.234375,0 2.140625,0.359375 2.140625,1.484375 0,0.734375 -0.375,2.84375 -3.25,2.84375 h -1.625 z M 7.265625,-4.875 c 1.78125,-0.390625 3.171875,-1.53125 3.171875,-2.765625 0,-1.125 -1.125,-2.15625 -3.125,-2.15625 H 3.421875 c -0.28125,0 -0.40625,0 -0.40625,0.265625 0,0.15625 0.09375,0.15625 0.375,0.15625 C 4.25,-9.375 4.25,-9.265625 4.25,-9.109375 4.25,-9.078125 4.25,-9 4.1875,-8.78125 L 2.25,-1.0625 c -0.125,0.5 -0.15625,0.640625 -1.140625,0.640625 -0.328125,0 -0.4375,0 -0.4375,0.28125 C 0.671875,0 0.828125,0 0.875,0 1.140625,0 1.4375,-0.03125 1.703125,-0.03125 H 3.40625 c 0.25,0 0.546875,0.03125 0.8125,0.03125 0.109375,0 0.265625,0 0.265625,-0.265625 0,-0.15625 -0.125,-0.15625 -0.34375,-0.15625 -0.875,0 -0.875,-0.109375 -0.875,-0.25 0,-0.015625 0,-0.109375 0.03125,-0.234375 l 0.96875,-3.859375 h 1.71875 c 1.359375,0 1.625,0.859375 1.625,1.34375 0,0.203125 -0.15625,0.765625 -0.25,1.140625 -0.15625,0.65625 -0.203125,0.8125 -0.203125,1.09375 0,1.015625 0.828125,1.484375 1.796875,1.484375 1.15625,0 1.65625,-1.421875 1.65625,-1.609375 0,-0.109375 -0.0625,-0.15625 -0.15625,-0.15625 -0.109375,0 -0.140625,0.09375 -0.171875,0.203125 C 9.9375,-0.25 9.359375,0.015625 9,0.015625 c -0.359375,0 -0.59375,-0.15625 -0.59375,-0.796875 0,-0.359375 0.171875,-1.65625 0.1875,-1.734375 0.0625,-0.53125 0.0625,-0.578125 0.0625,-0.703125 0,-1.046875 -0.84375,-1.484375 -1.390625,-1.65625 z m 0,0"
             transform="translate(148.712,134.765)"
             id="path5506" />
        </g>
      </g>
    </g>
    <g
       id="g5582"
       ns1:jacobian_sqrt="2.076132"
       ns1:alignment="middle center"
       ns1:scale="5.88509856755"
       ns1:preamble="C:\\Users\\fhamelin\\AppData\\Roaming\\inkscape\\extensions\\textext\\default_packages.tex"
       ns1:text="\\Large $D$"
       ns1:pdfconverter="pdf2svg"
       ns1:texconverter="pdflatex"
       ns1:version="0.11.0"
       transform="matrix(2.076132,0,0,2.076132,-230.62176,-109.93995)">
      <g
         id="g5580">
        <g
           id="g5578"
           style="fill:#000000;fill-opacity:1">
          <path
             id="path5576"
             transform="translate(148.712,134.765)"
             d="m 2.25,-1.0625 c -0.125,0.5 -0.15625,0.640625 -1.15625,0.640625 -0.28125,0 -0.421875,0 -0.421875,0.265625 C 0.671875,0 0.765625,0 1.046875,0 H 5.59375 c 2.890625,0 5.71875,-3 5.71875,-6.203125 0,-2.0625 -1.234375,-3.59375 -3.28125,-3.59375 H 3.421875 c -0.265625,0 -0.390625,0 -0.390625,0.265625 0,0.15625 0.125,0.15625 0.34375,0.15625 0.875,0 0.875,0.109375 0.875,0.265625 0,0.03125 0,0.109375 -0.0625,0.328125 z m 3.03125,-7.765625 c 0.125,-0.53125 0.1875,-0.546875 0.75,-0.546875 h 1.578125 c 1.34375,0 2.578125,0.71875 2.578125,2.703125 0,0.71875 -0.296875,3.21875 -1.6875,4.796875 -0.390625,0.46875 -1.484375,1.453125 -3.140625,1.453125 h -1.625 c -0.203125,0 -0.234375,0 -0.328125,-0.015625 -0.15625,0 -0.171875,-0.03125 -0.171875,-0.15625 0,-0.09375 0.03125,-0.1875 0.0625,-0.3125 z m 0,0"
             style="stroke:none;stroke-width:0"
             inkscape:connector-curvature="0" />
        </g>
      </g>
    </g>
    <path
       style="fill:none;stroke:#000000;stroke-width:0.5;stroke-linecap:butt;stroke-linejoin:miter;stroke-miterlimit:4;stroke-dasharray:none;stroke-opacity:1;marker-end:url(#Arrow1Lend)"
       d="m -89.958332,127.66666 h 44.034225"
       id="path5616"
       inkscape:connector-curvature="0"
       sodipodi:nodetypes="cc" />
    <path
       style="fill:none;stroke:#000000;stroke-width:0.5;stroke-linecap:butt;stroke-linejoin:miter;stroke-miterlimit:4;stroke-dasharray:none;stroke-opacity:1;marker-end:url(#Arrow1Lend-7)"
       d="M 14.703269,117.08333 58.737495,94.782735"
       id="path5616-2"
       inkscape:connector-curvature="0"
       sodipodi:nodetypes="cc" />
    <path
       style="fill:none;stroke:#000000;stroke-width:0.5;stroke-linecap:butt;stroke-linejoin:miter;stroke-miterlimit:4;stroke-dasharray:none;stroke-opacity:1;marker-end:url(#Arrow1Lend-7-7)"
       d="m 15.177215,138.78479 44.034226,22.3006"
       id="path5616-2-1"
       inkscape:connector-curvature="0"
       sodipodi:nodetypes="cc" />
    <g
       id="g6837"
       ns1:jacobian_sqrt="2.076132"
       ns1:alignment="middle center"
       ns1:scale="5.88509856755"
       ns1:preamble="C:\\Users\\fhamelin\\AppData\\Roaming\\inkscape\\extensions\\textext\\default_packages.tex"
       ns1:text="\\large $\\beta$"
       ns1:pdfconverter="pdf2svg"
       ns1:texconverter="pdflatex"
       ns1:version="0.11.0"
       transform="matrix(2.076132,0,0,2.076132,-384.23632,-161.2337)">
      <g
         id="g6835">
        <g
           id="g6833"
           style="fill:#000000;fill-opacity:1">
          <path
             id="path6831"
             transform="translate(148.712,134.765)"
             d="m 6.765625,-6.953125 c 0,-0.71875 -0.609375,-1.46875 -1.703125,-1.46875 -1.53125,0 -2.515625,1.890625 -2.828125,3.125 l -1.890625,7.5 C 0.328125,2.296875 0.390625,2.3125 0.453125,2.3125 c 0.078125,0 0.140625,0 0.15625,-0.0625 l 0.84375,-3.34375 C 1.5625,-0.4375 2.21875,0.125 2.921875,0.125 4.640625,0.125 6.25,-1.21875 6.25,-3 6.25,-3.453125 6.140625,-3.90625 5.890625,-4.296875 5.75,-4.515625 5.5625,-4.6875 5.375,-4.828125 c 0.859375,-0.453125 1.390625,-1.1875 1.390625,-2.125 z M 4.6875,-4.84375 C 4.5,-4.765625 4.296875,-4.75 4.078125,-4.75 3.90625,-4.75 3.75,-4.734375 3.53125,-4.8125 c 0.125,-0.078125 0.3125,-0.09375 0.5625,-0.09375 0.203125,0 0.421875,0.015625 0.59375,0.0625 z M 6.140625,-7.0625 c 0,0.65625 -0.3125,1.609375 -1.09375,2.046875 C 4.8125,-5.09375 4.5,-5.15625 4.25,-5.15625 4,-5.15625 3.28125,-5.171875 3.28125,-4.796875 3.28125,-4.46875 3.9375,-4.5 4.140625,-4.5 c 0.3125,0 0.578125,-0.078125 0.875,-0.15625 0.375,0.3125 0.546875,0.71875 0.546875,1.3125 0,0.6875 -0.203125,1.25 -0.421875,1.765625 C 4.75,-0.6875 3.8125,-0.125 2.984375,-0.125 c -0.875,0 -1.328125,-0.6875 -1.328125,-1.5 0,-0.109375 0,-0.265625 0.046875,-0.4375 l 0.78125,-3.15625 c 0.390625,-1.5625 1.40625,-2.96875 2.5625,-2.96875 0.859375,0 1.09375,0.59375 1.09375,1.125 z m 0,0"
             style="stroke:none;stroke-width:0"
             inkscape:connector-curvature="0" />
        </g>
      </g>
    </g>
    <g
       transform="matrix(2.076132,0,0,2.076132,-286.32558,-112.39112)"
       ns1:version="0.11.0"
       ns1:texconverter="pdflatex"
       ns1:pdfconverter="pdf2svg"
       ns1:text="\\large $\\alpha$"
       ns1:preamble="C:\\Users\\fhamelin\\AppData\\Roaming\\inkscape\\extensions\\textext\\default_packages.tex"
       ns1:scale="5.88509856755"
       ns1:alignment="middle center"
       ns1:jacobian_sqrt="2.076132"
       id="g6953">
      <g
         id="g6951">
        <g
           style="fill:#000000;fill-opacity:1"
           id="g6949">
          <path
             inkscape:connector-curvature="0"
             style="stroke:none;stroke-width:0"
             d="m 5.53125,-3.03125 c 0,-1.15625 -0.65625,-2.234375 -1.921875,-2.234375 -1.5625,0 -3.125,1.703125 -3.125,3.40625 0,1.03125 0.640625,1.984375 1.859375,1.984375 0.734375,0 1.625,-0.296875 2.46875,-1.015625 C 4.984375,-0.21875 5.359375,0.125 5.875,0.125 c 0.640625,0 0.96875,-0.671875 0.96875,-0.828125 0,-0.109375 -0.09375,-0.109375 -0.125,-0.109375 -0.09375,0 -0.109375,0.03125 -0.140625,0.125 C 6.46875,-0.375 6.1875,-0.125 5.90625,-0.125 c -0.375,0 -0.375,-0.765625 -0.375,-1.484375 1.21875,-1.46875 1.515625,-2.96875 1.515625,-2.984375 0,-0.109375 -0.109375,-0.109375 -0.140625,-0.109375 -0.109375,0 -0.109375,0.046875 -0.171875,0.25 -0.140625,0.53125 -0.453125,1.46875 -1.203125,2.4375 z m -0.75,1.859375 c -1.046875,0.9375 -2,1.046875 -2.421875,1.046875 -0.84375,0 -1.078125,-0.75 -1.078125,-1.3125 0,-0.515625 0.265625,-1.734375 0.625,-2.390625 0.5,-0.828125 1.171875,-1.203125 1.703125,-1.203125 1.15625,0 1.15625,1.515625 1.15625,2.515625 0,0.296875 -0.015625,0.609375 -0.015625,0.90625 0,0.25 0.015625,0.3125 0.03125,0.4375 z m 0,0"
             transform="translate(148.712,134.765)"
             id="path6947" />
        </g>
      </g>
    </g>
    <g
       id="g7077"
       ns1:jacobian_sqrt="2.076132"
       ns1:alignment="middle center"
       ns1:scale="5.88509856755"
       ns1:preamble="C:\\Users\\fhamelin\\AppData\\Roaming\\inkscape\\extensions\\textext\\default_packages.tex"
       ns1:text="\\large $\\gamma$"
       ns1:pdfconverter="pdf2svg"
       ns1:texconverter="pdflatex"
       ns1:version="0.11.0"
       transform="matrix(2.076132,0,0,2.076132,-285.73037,-185.98093)">
      <g
         id="g7075">
        <g
           id="g7073"
           style="fill:#000000;fill-opacity:1">
          <path
             id="path7071"
             transform="translate(148.712,134.765)"
             d="M 4.515625,-1.453125 C 4.5,-2.046875 4.46875,-2.96875 4.015625,-4.046875 3.78125,-4.640625 3.375,-5.265625 2.5,-5.265625 c -1.46875,0 -2.265625,1.875 -2.265625,2.1875 0,0.109375 0.078125,0.109375 0.109375,0.109375 0.109375,0 0.109375,-0.03125 0.171875,-0.1875 0.25,-0.734375 1.015625,-1.328125 1.84375,-1.328125 1.65625,0 1.890625,1.859375 1.890625,3.03125 0,0.765625 -0.078125,1.015625 -0.15625,1.25 -0.21875,0.734375 -0.609375,2.21875 -0.609375,2.5625 0,0.09375 0.03125,0.203125 0.125,0.203125 0.1875,0 0.28125,-0.40625 0.421875,-0.875 0.28125,-1.046875 0.359375,-1.578125 0.421875,-2.0625 0.03125,-0.28125 0.703125,-2.25 1.65625,-4.125 0.078125,-0.203125 0.25,-0.515625 0.25,-0.5625 0,0 -0.015625,-0.09375 -0.125,-0.09375 -0.015625,0 -0.078125,0 -0.109375,0.046875 -0.015625,0.03125 -0.4375,0.84375 -0.796875,1.65625 -0.171875,0.40625 -0.421875,0.9375 -0.8125,2 z m 0,0"
             style="stroke:none;stroke-width:0"
             inkscape:connector-curvature="0" />
        </g>
      </g>
    </g>
    <rect
       style="opacity:1;fill:none;fill-opacity:1;stroke:none;stroke-width:0.5;stroke-linejoin:round;stroke-miterlimit:4;stroke-dasharray:none;stroke-dashoffset:0;stroke-opacity:1;paint-order:normal"
       id="rect4546"
       width="510.26785"
       height="119.44047"
       x="-275.64023"
       y="66.411842" />
  </g>
</svg>
